<?xml version="1.0" encoding="UTF-8"?>
<svg version="1.1" xmlns="http://www.w3.org/2000/svg" width="2000" height="628">
<path d="M0 0 C22.57666818 11.74093239 41.97098911 28.95344086 60.53125 46.16015625 C63.01257807 48.44632368 65.52980816 50.68138743 68.0625 52.91015625 C78.98700867 62.74044919 89.29381068 73.1117688 98.3125 84.72265625 C99.38951172 86.01623047 99.38951172 86.01623047 100.48828125 87.3359375 C110.3125 99.17169647 110.3125 99.17169647 110.3125 104.72265625 C107.3425 106.04265625 104.3725 107.36265625 101.3125 108.72265625 C104.2825 110.04265625 107.2525 111.36265625 110.3125 112.72265625 C106.57842924 122.16838129 102.78851032 131.59051596 98.91748047 140.98095703 C89.27515003 164.37449321 79.83063364 187.84157522 70.49920654 211.36071777 C69.0718589 214.95620607 67.64178642 218.55060811 66.21181107 222.14505196 C62.18759408 232.261471 58.17988958 242.38429982 54.18531799 252.5124588 C53.35016836 254.62727038 52.51242151 256.74103161 51.67370605 258.85443115 C50.24898878 262.44591275 48.83811047 266.04271939 47.4296875 269.640625 C47.03129669 270.64088211 46.63290588 271.64113922 46.22244263 272.67170715 C42.81466186 281.44734387 40.79977894 289.49698567 41.66015625 298.91796875 C41.77480704 300.49354242 41.88545394 302.06941115 41.99267578 303.64550781 C42.04917297 304.4700647 42.10567017 305.29462158 42.16387939 306.14416504 C42.42444837 310.66490302 42.48917566 315.18776858 42.55859375 319.71484375 C42.57426392 320.66805008 42.58993408 321.62125641 42.6060791 322.60334778 C42.63817776 324.58175608 42.6695994 326.56017547 42.70037842 328.53860474 C42.97368104 377.78251173 42.97368104 377.78251173 50.75 426.22265625 C50.94311768 426.98263916 51.13623535 427.74262207 51.33520508 428.52563477 C52.6885434 433.42382499 54.6351501 437.40251629 57.3125 441.72265625 C58.53066406 441.68785156 59.74882813 441.65304687 61.00390625 441.6171875 C62.62759028 441.58903113 64.25128935 441.56173296 65.875 441.53515625 C67.07479492 441.49745117 67.07479492 441.49745117 68.29882812 441.45898438 C76.56291417 441.35779148 82.25072599 443.89695681 88.3828125 449.4921875 C94.71814667 456.81501303 97.68230089 465.69814241 97.5234375 475.26171875 C96.76775786 484.0779812 93.29976441 491.43829488 86.56640625 497.22265625 C76.66981457 504.1358679 64.50847388 504.23294789 52.90527344 504.16870117 C50.57916803 504.16021704 48.25555064 504.18901361 45.9296875 504.22070312 C25.33918815 504.31864739 6.5504339 498.31614712 -8.61328125 483.890625 C-23.39912136 468.34491302 -26.57953226 441.06228467 -30.625 420.78515625 C-31.0493465 418.70633289 -31.47474033 416.62772308 -31.90112305 414.54931641 C-33.77614284 405.37630984 -35.60337444 396.1943034 -37.38761902 387.0032196 C-37.92015248 384.26005392 -38.4560673 381.51756535 -38.99243164 378.77514648 C-39.64609169 375.43206228 -40.28424033 372.08658421 -40.91186523 368.73852539 C-43.07140997 357.45590481 -45.70383832 346.66757791 -51.6875 336.72265625 C-51.6875 336.06265625 -51.6875 335.40265625 -51.6875 334.72265625 C-66.17952024 330.79565764 -81.6261759 327.72265625 -96.6875 327.72265625 C-96.27757812 328.89441406 -95.86765625 330.06617188 -95.4453125 331.2734375 C-94.90062808 332.8605352 -94.35638087 334.447783 -93.8125 336.03515625 C-93.54308594 336.80150391 -93.27367187 337.56785156 -92.99609375 338.35742188 C-88.77329291 350.76833653 -88.41254081 362.54797612 -88.4921875 375.515625 C-88.49592474 377.31594179 -88.49876835 379.11626064 -88.50076294 380.9165802 C-88.50834343 385.61994188 -88.52794296 390.32317704 -88.5501709 395.02648926 C-88.57075064 399.83990773 -88.57979042 404.65334695 -88.58984375 409.46679688 C-88.61119493 418.88547179 -88.64526218 428.30405344 -88.6875 437.72265625 C-87.8310791 437.72676514 -86.9746582 437.73087402 -86.09228516 437.73510742 C-82.86740821 437.76232617 -79.64378308 437.81166012 -76.41943359 437.87524414 C-75.03283122 437.89822029 -73.64605938 437.9127713 -72.25927734 437.91821289 C-62.60327227 437.96352988 -54.16654614 438.68961931 -46.7590332 445.49414062 C-41.07356591 451.52142489 -39.79840552 458.64873472 -39.6875 466.72265625 C-40.23682892 475.10500861 -41.92190115 481.77891559 -46.6875 488.72265625 C-47.265 489.60953125 -47.8425 490.49640625 -48.4375 491.41015625 C-54.12126457 497.25180317 -60.83852809 500.73176739 -68.6875 502.72265625 C-69.35339488 502.89609715 -70.01928976 503.06953806 -70.70536327 503.24823475 C-74.98859518 503.92964459 -79.21172576 503.86354912 -83.54231262 503.85636902 C-84.54237215 503.85863458 -85.54243168 503.86090013 -86.57279605 503.86323434 C-89.92850659 503.86957099 -93.28417671 503.86874514 -96.63989258 503.86791992 C-99.04500887 503.87091193 -101.45012469 503.87431455 -103.85523987 503.87809753 C-109.71738542 503.88602514 -115.57952148 503.88915248 -121.44167129 503.88970991 C-126.2172821 503.89018589 -130.99288961 503.89224475 -135.76849937 503.89541054 C-149.34109145 503.90422299 -162.91367563 503.90882992 -176.48627058 503.90808006 C-177.58373437 503.90802013 -177.58373437 503.90802013 -178.70336914 503.90795898 C-179.43591865 503.9079181 -180.16846815 503.90787722 -180.92321613 503.9078351 C-192.74690841 503.90743025 -204.5705686 503.91695759 -216.39425162 503.93109735 C-228.56702165 503.94553799 -240.73977613 503.95236309 -252.91255492 503.95150357 C-259.7331224 503.95117385 -266.55365639 503.95381995 -273.37421608 503.96468163 C-279.80844134 503.9744636 -286.24259663 503.97437361 -292.67682457 503.96716499 C-295.01947 503.96613103 -297.36212001 503.96840993 -299.70475769 503.97452545 C-349.15735716 504.09509823 -398.46954442 496.93838004 -435.6875 461.72265625 C-436.5228125 460.95179688 -437.358125 460.1809375 -438.21875 459.38671875 C-462.47386708 436.25452376 -474.98051238 400.10963469 -475.86450195 367.03369141 C-475.89065209 365.35978015 -475.91081053 363.68576732 -475.92578125 362.01171875 C-475.94060799 360.64277214 -475.94060799 360.64277214 -475.95573425 359.24617004 C-476.3302387 315.50400396 -469.32876089 274.17077538 -460.86328125 231.3515625 C-460.62117416 230.12599136 -460.37906708 228.90042023 -460.12962341 227.63771057 C-458.94723611 221.66316712 -457.75516303 215.690839 -456.54467773 209.72192383 C-445.27321185 164.37422831 -445.27321185 164.37422831 -451.3125 119.41015625 C-453.34224337 117.11334138 -455.04067639 115.66069994 -457.5 113.91015625 C-464.75378813 108.71341251 -470.19566382 101.63406705 -471.6875 92.72265625 C-472.88633679 80.72081824 -471.07288972 70.82494387 -463.4375 61.28515625 C-457.57829085 55.14511355 -449.62218863 51.19419316 -441.171875 50.38671875 C-433.20920318 50.3034272 -426.7887348 50.82805457 -419.6875 54.72265625 C-418.83027344 55.17382812 -417.97304688 55.625 -417.08984375 56.08984375 C-398.8850709 66.61979869 -387.642221 83.90764102 -381.6875 103.72265625 C-369.74955329 149.65577154 -382.69308967 199.11516102 -391.59867859 244.45805359 C-392.69516897 250.04540249 -393.78704769 255.6336387 -394.875 261.22265625 C-395.08931671 262.32348541 -395.30363342 263.42431458 -395.52444458 264.5585022 C-398.24178289 278.57209144 -400.76418861 292.58553789 -402.75 306.72265625 C-402.89748184 307.76909302 -402.89748184 307.76909302 -403.04794312 308.83666992 C-407.39641612 340.08149697 -411.38908605 378.65169443 -391.6875 405.72265625 C-390.15398218 407.3544345 -388.58515215 408.95368015 -386.984375 410.51953125 C-386.17838867 411.31198242 -385.37240234 412.10443359 -384.54199219 412.92089844 C-383.93000977 413.51547852 -383.31802734 414.11005859 -382.6875 414.72265625 C-382.82849121 413.7776123 -382.96948242 412.83256836 -383.11474609 411.85888672 C-386.88282012 386.50466867 -389.941377 361.37368219 -390.6875 335.72265625 C-390.72254639 334.57893555 -390.72254639 334.57893555 -390.75830078 333.41210938 C-392.72168266 258.90259189 -371.48738769 187.19989214 -320.16015625 132.25390625 C-316.83204606 128.84693089 -313.34573368 125.76573078 -309.6875 122.72265625 C-308.79160156 121.92730469 -307.89570313 121.13195312 -306.97265625 120.3125 C-273.97148416 91.18375069 -233.19152741 74.27823683 -191.1875 62.78515625 C-148.52312009 50.9826968 -107.19616093 31.87777163 -66.25390625 15.2265625 C-65.5008017 14.92123596 -64.74769714 14.61590942 -63.97177124 14.30133057 C-60.62438422 12.93994883 -57.28946583 11.56022659 -53.97998047 10.10888672 C-52.90248535 9.6398291 -51.82499023 9.17077148 -50.71484375 8.6875 C-49.803396 8.28007568 -48.89194824 7.87265137 -47.95288086 7.45288086 C-45.6875 6.72265625 -45.6875 6.72265625 -42.6875 7.72265625 C-42.0275 11.02265625 -41.3675 14.32265625 -40.6875 17.72265625 C-32.51352049 15.14139956 -24.62109166 11.95253744 -16.6875 8.72265625 C-16.6875 5.42265625 -16.6875 2.12265625 -16.6875 -1.27734375 C-18.81832031 -0.39369141 -18.81832031 -0.39369141 -20.9921875 0.5078125 C-22.84879245 1.26733271 -24.70557239 2.02642525 -26.5625 2.78515625 C-27.96822266 3.37006836 -27.96822266 3.37006836 -29.40234375 3.96679688 C-30.29824219 4.33095703 -31.19414062 4.69511719 -32.1171875 5.0703125 C-32.94460449 5.41070557 -33.77202148 5.75109863 -34.62451172 6.10180664 C-36.6875 6.72265625 -36.6875 6.72265625 -38.6875 5.72265625 C-36.03659324 4.34622389 -33.3781732 3.01831888 -30.6875 1.72265625 C-29.74648438 1.26761719 -28.80546875 0.81257813 -27.8359375 0.34375 C-17.51356802 -4.33732453 -10.37750736 -4.75194534 0 0 Z M-254.6875 294.72265625 C-256.80657262 297.3153559 -258.80651768 299.95277089 -260.6875 302.72265625 C-260.3575 303.38265625 -260.0275 304.04265625 -259.6875 304.72265625 C-258.54474609 303.45421875 -258.54474609 303.45421875 -257.37890625 302.16015625 C-238.53974881 281.38862024 -217.15708141 266.51055219 -188.31640625 264.5625 C-175.86039214 264.13681155 -164.16294751 267.11178368 -152.73950195 271.82861328 C-151.07480459 272.50923118 -149.38280499 273.12232381 -147.6875 273.72265625 C-147.0275 273.39265625 -146.3675 273.06265625 -145.6875 272.72265625 C-157.39626529 266.29997452 -169.20096046 261.63699791 -182.6875 260.72265625 C-183.39261719 260.67109375 -184.09773438 260.61953125 -184.82421875 260.56640625 C-212.66302049 259.46205709 -236.47661124 275.02981723 -254.6875 294.72265625 Z M-145.6875 273.72265625 C-145.3575 274.38265625 -145.0275 275.04265625 -144.6875 275.72265625 C-144.0275 275.39265625 -143.3675 275.06265625 -142.6875 274.72265625 C-143.6775 274.39265625 -144.6675 274.06265625 -145.6875 273.72265625 Z M-140.6875 276.72265625 C-140.3575 277.38265625 -140.0275 278.04265625 -139.6875 278.72265625 C-139.0275 278.39265625 -138.3675 278.06265625 -137.6875 277.72265625 C-138.6775 277.39265625 -139.6675 277.06265625 -140.6875 276.72265625 Z M-261.6875 304.72265625 C-261.6875 307.72265625 -261.6875 307.72265625 -261.6875 307.72265625 Z M-263.6875 307.72265625 C-263.6875 310.72265625 -263.6875 310.72265625 -263.6875 310.72265625 Z M-265.6875 310.72265625 C-264.6875 312.72265625 -264.6875 312.72265625 -264.6875 312.72265625 Z " fill="#101010" transform="translate(494.6875,116.27734375)"/>
<path d="M0 0 C15.18 0 30.36 0 46 0 C54.6071916 44.90045048 63.01830139 89.83528383 71.33501863 134.79037631 C72.93973032 143.46409037 74.54636729 152.13744754 76.15309668 160.81078804 C79.43740652 178.54015373 82.71951833 196.2699256 86 214 C90.0347222 200.15489043 93.80598553 186.26490126 97.34375 172.28515625 C97.83539678 170.35242799 98.3273483 168.41977723 98.81958008 166.48719788 C99.85248579 162.42981125 100.88366059 158.37199084 101.91333008 154.31378174 C104.31570242 144.84596992 106.7272414 135.38049142 109.13835144 125.91490173 C109.67061767 123.82515743 110.20277323 121.73538493 110.7348175 119.64558411 C117.07508899 94.74218723 123.52525644 69.86890141 130 45 C144.52 45 159.04 45 174 45 C179.74307257 65.67506126 179.74307257 65.67506126 181.7956543 74.39868164 C182.03391434 75.39859131 182.27217438 76.39850098 182.51765442 77.42871094 C183.2896448 80.67178998 184.05692786 83.91596248 184.82421875 87.16015625 C185.3757124 89.48009461 185.92754402 91.79995265 186.47969055 94.11973572 C187.9270512 100.20393259 189.37058556 106.28903018 190.81304932 112.37438965 C193.09526464 121.99993187 195.38276133 131.62422114 197.67087173 141.24836349 C198.22991704 143.59983452 198.78882436 145.95133836 199.3475914 148.30287552 C204.47822064 169.88993043 209.70522132 191.45265724 215 213 C216.54219807 208.67254101 217.58304331 204.44209678 218.41497803 199.92605591 C218.54312716 199.23705291 218.67127629 198.54804991 218.80330873 197.83816803 C219.22940668 195.54144765 219.6493628 193.24364837 220.06933594 190.94580078 C220.37479157 189.2923559 220.68062834 187.6389814 220.98681641 185.985672 C221.81736073 181.49505415 222.64259859 177.00347549 223.46692944 172.5117135 C224.33647599 167.77886438 225.21100967 163.04693697 226.08502197 158.31491089 C227.74577226 149.31924636 229.4022081 140.32279312 231.05702996 131.32603633 C233.09965402 120.22192586 235.14731824 109.11874606 237.1953125 98.015625 C237.92094672 94.08161933 238.64656031 90.14760985 239.37213135 86.21359253 C239.5488872 85.25524565 239.72564305 84.29689876 239.90775514 83.30951107 C241.10402209 76.82264058 242.29868829 70.33547667 243.49261475 63.84817505 C245.17826753 54.6896754 246.86836848 45.5320041 248.56128502 36.37484455 C249.0049639 33.9731295 249.44773916 31.57124924 249.89033508 29.16933441 C250.59472467 25.34804383 251.3022486 21.52734645 252.01221514 17.70708823 C252.27292916 16.30161529 252.53261054 14.89595034 252.79119444 13.49008393 C253.14265381 11.5803397 253.49824197 9.67135667 253.85406494 7.76242065 C254.05236027 6.69168242 254.25065559 5.62094418 254.45495987 4.51775932 C255 2 255 2 256 0 C270.19 0 284.38 0 299 0 C295.40143799 19.68102431 291.60483895 39.31257327 287.69427037 58.93336511 C286.88145923 63.01352755 286.07068272 67.09409439 285.2596283 71.17460632 C283.88999303 78.06398411 282.51907537 84.95310562 281.1472168 91.84204102 C279.2665312 101.2861199 277.38823212 110.73067217 275.51041532 120.17532182 C269.97738939 148.00263067 264.43580451 175.82822779 258.87451172 203.64990234 C258.72207449 204.41250657 258.56963727 205.1751108 258.41258073 205.96082425 C255.2779511 221.64112932 252.13836503 237.32044206 249 253 C226.89 253 204.78 253 182 253 C179.67231449 244.85310072 177.38475688 236.8291642 175.49804688 228.5925293 C175.27955582 227.65218842 175.06106476 226.71184753 174.83595276 225.74301147 C174.12685702 222.68751477 173.42276706 219.63088922 172.71875 216.57421875 C172.21870441 214.41527504 171.71833195 212.25640701 171.21765137 210.09761047 C169.90748692 204.44478355 168.60153833 198.79099124 167.29656982 193.13696289 C165.97746918 187.42473455 164.65467963 181.71336086 163.33203125 176.00195312 C161.60979361 168.56471659 159.88887651 161.12717953 158.17081451 153.68897724 C157.31683409 149.99487678 156.46000257 146.30143998 155.60317993 142.60799789 C155.00445381 140.01925713 154.41095314 137.42935864 153.81811523 134.83926392 C153.45634566 133.27147513 153.09445515 131.70371424 152.73242188 130.13598633 C152.57026436 129.42101581 152.40810684 128.70604528 152.24103546 127.96940899 C151.68478401 124.70876757 151.68478401 124.70876757 150 122 C149.70456299 123.17144058 149.40912598 124.34288116 149.10473633 125.54981995 C146.28261407 136.73937495 143.45957903 147.92869934 140.63571167 159.11781406 C139.18492501 164.86643669 137.73442998 170.61513254 136.28466797 176.36401367 C132.53180659 191.24488144 128.77261421 206.12412668 125 221 C124.77554199 221.8854525 124.55108398 222.770905 124.31982422 223.68318939 C123.1397741 228.33639055 121.9560923 232.98862955 120.76501465 237.63902092 C120.26466413 239.59501794 119.76753706 241.55183864 119.27050781 243.50868225 C118.98014648 244.63753342 118.68978516 245.76638458 118.390625 246.92944336 C118.14344727 247.89555038 117.89626953 248.86165741 117.64160156 249.85704041 C117 252 117 252 116 253 C113.97505769 253.09409479 111.9468013 253.11743122 109.91967773 253.11352539 C107.96776772 253.11341209 107.96776772 253.11341209 105.97642517 253.11329651 C104.54548098 253.10818909 103.11453718 253.10297308 101.68359375 253.09765625 C100.2277074 253.09579203 98.77182043 253.09436815 97.31593323 253.09336853 C93.47720621 253.08954365 89.63851681 253.07971364 85.79980469 253.06866455 C81.88542184 253.05844978 77.97103294 253.05387077 74.05664062 253.04882812 C66.37107607 253.03809134 58.68554483 253.02061955 51 253 C47.83445867 241.33626078 45.6121651 229.46838318 43.25317383 217.62231445 C42.78007578 215.257616 42.30672616 212.89296787 41.83314514 210.52836609 C40.68635399 204.79899374 39.54221496 199.06909656 38.39931873 193.33894608 C37.06788188 186.66415136 35.73331825 179.98998298 34.39862057 173.31583967 C32.01870091 161.41455773 29.64149007 149.51273639 27.26586914 137.6105957 C24.96010583 126.05846692 22.6525753 114.50669307 20.34301758 102.95532227 C20.20042996 102.24216141 20.05784234 101.52900056 19.91093389 100.79422877 C19.62368859 99.35755967 19.33644318 97.92089059 19.04919766 96.48422153 C18.907507 95.7755487 18.76581635 95.06687586 18.61983204 94.3367281 C18.47849995 93.62985167 18.33716786 92.92297525 18.19155299 92.19467833 C15.98950137 81.18072479 13.78892271 70.1664769 11.58855006 59.15218783 C10.79080784 55.15903819 9.99287299 51.1659271 9.19480542 47.17284248 C7.81295365 40.25874822 6.43211149 33.34445309 5.05238914 26.42993355 C4.59314151 24.1291575 4.13356489 21.82844709 3.67364502 19.52780533 C3.04889598 16.40232544 2.42532417 13.27661304 1.80207825 10.15083313 C1.61735909 9.22810382 1.43263993 8.3053745 1.24232322 7.3546837 C0 1.11420845 0 1.11420845 0 0 Z " fill="#101010" transform="translate(1157,360)"/>
<path d="M0 0 C10.42210387 -0.42652738 19.78823968 3.13957677 28.7578125 8.16015625 C26.82306924 14.38666238 24.50490177 20.27850945 21.6953125 26.16015625 C21.31117188 26.96960693 20.92703125 27.77905762 20.53125 28.61303711 C16.43079848 37.09164355 11.63758262 45.1143448 6.7578125 53.16015625 C6.4278125 53.82015625 6.0978125 54.48015625 5.7578125 55.16015625 C6.52850935 56.93149394 6.52850935 56.93149394 7.78515625 58.8359375 C8.2438208 59.57497314 8.70248535 60.31400879 9.17504883 61.07543945 C9.67673584 61.866521 10.17842285 62.65760254 10.6953125 63.47265625 C11.452677 64.69118286 11.452677 64.69118286 12.2253418 65.93432617 C14.48374581 69.56445378 16.76787579 73.17785087 19.0625 76.78515625 C29.8491652 93.9095119 35.34372397 108.87648908 31.7578125 129.16015625 C30.79681271 138.96235407 32.95036348 146.62751256 37.8984375 155.1171875 C40.09576849 160.34084255 39.49308516 167.22371923 38.140625 172.625 C30.35867423 191.66667599 11.25715164 205.40910595 -6.71875 214.1015625 C-16.89410443 218.37017094 -27.20570102 216.68534887 -37.12890625 212.73413086 C-39.87285726 211.60833111 -42.59736483 210.44171566 -45.31542969 209.25488281 C-54.41137526 205.31259299 -61.33954464 203.04682535 -71.2421875 206.16015625 C-72.13357422 204.85304687 -72.13357422 204.85304687 -73.04296875 203.51953125 C-78.15866501 196.12845182 -83.55326073 189.34018823 -89.734375 182.81640625 C-91.7472002 180.68444187 -93.66593957 178.52507842 -95.5546875 176.28515625 C-102.80276547 167.93410989 -110.83526384 159.98683588 -119.27734375 152.84765625 C-121.7017648 150.7654497 -124.02568782 148.58513418 -126.3671875 146.41015625 C-132.18642561 141.10603742 -138.29814382 136.24654667 -144.54736328 131.4609375 C-146.11815279 130.25535316 -147.67868175 129.03643193 -149.23828125 127.81640625 C-163.57495857 116.76724381 -178.79140543 108.62251509 -195.2421875 101.16015625 C-195.2421875 96.3659415 -194.51461459 95.92829855 -191.3046875 92.59765625 C-187.97293675 89.04691718 -184.79402554 85.45476969 -181.7421875 81.66015625 C-178.13069616 77.19595168 -174.35558056 72.93013511 -170.48828125 68.6875 C-168.18031152 66.09053232 -165.98662887 63.42611612 -163.8046875 60.72265625 C-144.01332967 36.45346098 -124.38584027 26.54801576 -94.4296875 19.16015625 C-92.01828021 18.55211289 -89.60714943 17.94297195 -87.19628906 17.33276367 C-25.64407452 1.83171961 -25.64407452 1.83171961 0 0 Z " fill="#101010" transform="translate(675.2421875,6.83984375)"/>
<path d="M0 0 C14.19 0 28.38 0 43 0 C43 36.3 43 72.6 43 110 C47.29 108.02 51.58 106.04 56 104 C66.0366353 100.91566924 76.25593026 100.50077528 86.6875 100.625 C87.38044159 100.62932037 88.07338318 100.63364075 88.787323 100.63809204 C113.12111113 100.81514505 138.27883651 104.05159546 156.71484375 121.5234375 C171.67480378 137.73645401 175.13743631 159.92431521 175.16113281 181.16918945 C175.16609772 182.25028488 175.17106262 183.33138031 175.17617798 184.44523621 C175.19071037 188.00125787 175.19758874 191.55723484 175.203125 195.11328125 C175.20736607 196.95002442 175.20736607 196.95002442 175.21169281 198.82387352 C175.22665375 205.31137683 175.2359012 211.79885811 175.24023438 218.28637695 C175.24491187 224.93513828 175.26968594 231.5837138 175.29820633 238.23241901 C175.31698373 243.38966935 175.32204641 248.54687145 175.32357025 253.70415306 C175.32656627 256.15216382 175.3344893 258.60017437 175.34775543 261.04815102 C175.48235912 287.80874809 174.36611153 313.72078202 155.1875 334.25 C119.16989159 368.60844794 29.95471402 354 0 354 C0 237.18 0 120.36 0 0 Z M49.65625 149.8515625 C44.24924798 156.86536229 42.87232681 163.57959508 42.87974548 172.37814331 C42.87837082 173.64010025 42.87699615 174.90205719 42.87557983 176.20225525 C42.87911827 177.58779931 42.88275307 178.97334313 42.88647461 180.35888672 C42.88675689 181.82773334 42.88659795 183.2965801 42.8860321 184.76542664 C42.88574571 188.74222966 42.89161689 192.7190024 42.89860606 196.6957984 C42.90486592 200.85580128 42.90544548 205.0158049 42.90663147 209.17581177 C42.90973702 217.04858816 42.91793996 224.92135064 42.92798096 232.79412091 C42.93916618 241.75902106 42.94465862 250.72392188 42.94967639 259.68882728 C42.96012322 278.12589274 42.97770764 296.56294525 43 315 C50.59838072 315.0933739 58.1967007 315.16410227 65.79552746 315.20724869 C69.32540076 315.22797466 72.85487675 315.2560106 76.38452148 315.30175781 C80.45820559 315.35421564 84.5314835 315.37306869 88.60546875 315.390625 C89.8507988 315.41127014 91.09612885 315.43191528 92.37919617 315.45318604 C103.08351449 315.45588047 113.90325648 313.77512063 122.3515625 306.69921875 C130.48869085 298.31142057 131.29951932 289.08004876 131.29052734 277.90527344 C131.29724457 276.70272415 131.30396179 275.50017487 131.31088257 274.26118469 C131.32657814 270.97786775 131.33323488 267.69470301 131.33451414 264.41135311 C131.33594074 262.35470193 131.34021998 260.29807686 131.34550858 258.24143219 C131.36398619 251.05107453 131.37218224 243.86079077 131.37060547 236.67041016 C131.36940543 229.99307003 131.39048635 223.31605384 131.4220928 216.63879561 C131.44834376 210.88564862 131.45896906 205.13260683 131.45769465 199.37940049 C131.4571875 195.95233895 131.46273221 192.52556544 131.48405075 189.09856415 C131.50374243 185.26954112 131.49785884 181.44134224 131.48583984 177.61230469 C131.49707886 176.49400772 131.50831787 175.37571075 131.51989746 174.223526 C131.44514067 164.80627912 129.51070662 155.5330547 122.828125 148.49609375 C114.78686554 141.91531945 104.88347097 139.6958151 94.73046875 139.6640625 C93.58799431 139.6540773 93.58799431 139.6540773 92.42243958 139.64389038 C90.82160836 139.6338343 89.22073582 139.62907116 87.61987305 139.62939453 C85.20354278 139.62502898 82.78905429 139.58865819 80.37304688 139.55078125 C68.35211911 139.46163129 58.18509803 140.44885709 49.65625 149.8515625 Z " fill="#101010" transform="translate(1509,259)"/>
<path d="M0 0 C18.41440002 -0.12032643 18.41440002 -0.12032643 26.39453125 -0.14648438 C31.79420047 -0.16426915 37.19371405 -0.18507396 42.59326172 -0.22631836 C108.51669404 -0.71630171 108.51669404 -0.71630171 131.42578125 21.1796875 C145.80264927 36.93097538 149.31355791 57.37389016 149.27124023 77.99511719 C149.27563969 79.35335091 149.28094622 80.71158195 149.28707886 82.06980896 C149.29848034 84.96871329 149.30403089 87.8675455 149.30496025 90.76647186 C149.30691859 95.35677088 149.32506435 99.94692255 149.34571838 104.53717041 C149.39465314 115.92974795 149.42580186 127.32236478 149.44702148 138.71502686 C149.46356945 147.59000796 149.48642103 156.46486036 149.53004223 165.3397553 C149.55173648 169.89705074 149.55988442 174.45410108 149.55764949 179.01144457 C149.55932234 181.84932129 149.57340658 184.68703911 149.59086227 187.52485847 C149.59908019 189.45549507 149.59255244 191.38617705 149.585495 193.31681824 C149.6402126 199.91403021 150.09171205 205.03456492 153 211 C158.60533752 215.92590267 168.37053827 215.98008281 175 217 C175 228.88 175 240.76 175 253 C167.1728125 253.12375 167.1728125 253.12375 159.1875 253.25 C157.56481201 253.28641602 155.94212402 253.32283203 154.27026367 253.36035156 C140.9955803 253.46139267 130.93088671 250.76866402 121.28125 241.31640625 C120.8584375 240.88199219 120.435625 240.44757813 120 240 C116.87918431 241.40401953 114.62398353 243.1232544 112.0625 245.375 C100.14997359 254.50269899 86.2705993 253.59751559 71.95605469 253.46655273 C68.53530436 253.43779678 65.11613018 253.44593346 61.6953125 253.45898438 C43.5438464 253.44183876 24.60095727 253.14913751 8 245 C6.66775391 244.35417969 6.66775391 244.35417969 5.30859375 243.6953125 C-6.39554282 237.36971808 -12.93972346 227.52800384 -16.9296875 215.10546875 C-19.24042373 207.06190597 -20.15920927 199.28815575 -20.203125 190.9453125 C-20.20882507 190.08549774 -20.21452515 189.22568298 -20.22039795 188.33981323 C-20.229807 186.52277844 -20.23636556 184.70572691 -20.24023438 182.88867188 C-20.2498493 180.16764677 -20.28087375 177.44740791 -20.3125 174.7265625 C-20.45212636 151.92005816 -16.82147521 130.73201159 -0.6875 113.53515625 C11.96065374 101.35320049 29.47702207 95.85312288 46.85327148 95.88647461 C47.49802933 95.88632858 48.14278717 95.88618256 48.80708313 95.8860321 C50.91178907 95.88672183 53.01640351 95.89446958 55.12109375 95.90234375 C56.59082491 95.90421128 58.06055669 95.9056336 59.5302887 95.90663147 C63.37879181 95.9104303 67.22725656 95.92023779 71.07574463 95.93133545 C75.0107776 95.9416065 78.94581683 95.94614124 82.88085938 95.95117188 C90.58725698 95.96186268 98.29362309 95.97890708 106 96 C105.91797881 91.58263772 105.80524486 87.16654303 105.6875 82.75 C105.66494141 81.51507813 105.64238281 80.28015625 105.61914062 79.0078125 C105.26563179 66.79568899 104.01826971 55.8086567 95.0625 46.875 C84.97515343 38.92648677 71.83721341 39.3967228 59.66796875 39.390625 C57.93775409 39.37561026 56.20755359 39.35887633 54.47737122 39.34051514 C49.96808134 39.29719845 45.45898465 39.27692264 40.94952393 39.26177979 C35.51511034 39.2386025 30.08090601 39.18621509 24.64665985 39.13883972 C16.43105261 39.07042891 8.21604336 39.03865464 0 39 C0 26.13 0 13.26 0 0 Z M29.46875 145.05078125 C22.36540872 154.47782194 22.81899978 165.46639 22.8125 176.75 C22.80025391 177.8534375 22.78800781 178.956875 22.77539062 180.09375 C22.59577824 195.04539783 22.59577824 195.04539783 29 208 C35.71866972 214.53708405 43.49501564 214.30858902 52.33984375 214.30078125 C53.42076797 214.30506638 54.5016922 214.3093515 55.6153717 214.31376648 C57.89388328 214.31949136 60.17241312 214.32002368 62.45092773 214.31567383 C65.92268249 214.31251349 69.39358476 214.33599839 72.86523438 214.36132812 C75.08593643 214.36360137 77.30664077 214.3643045 79.52734375 214.36328125 C80.55778305 214.372491 81.58822235 214.38170074 82.64988708 214.39118958 C89.72860406 214.34609849 96.05968315 213.86294009 101.375 208.6875 C106.77244835 199.76095081 106.13982819 189.69985288 106.09765625 179.62890625 C106.0962413 178.35144028 106.09482635 177.0739743 106.09336853 175.75779724 C106.08873516 172.38275254 106.07977023 169.00777703 106.06866455 165.63275146 C106.05838426 162.18030389 106.05385681 158.72784913 106.04882812 155.27539062 C106.03782466 148.51690815 106.02110567 141.75845807 106 135 C98.21944381 134.8835752 90.43909594 134.79501839 82.6578846 134.74093914 C79.04374299 134.71496866 75.43020218 134.67980591 71.81640625 134.62280273 C68.32150338 134.568027 64.82717422 134.53848538 61.33187485 134.52561378 C59.36551721 134.51203101 57.39938682 134.4730716 55.43338013 134.43351746 C44.82257402 134.43023422 36.76441932 137.11846154 29.46875 145.05078125 Z " fill="#101010" transform="translate(954,360)"/>
<path d="M0 0 C1.56610938 0.00374603 3.13222115 0.00658544 4.69833374 0.00857544 C8.75222644 0.01608713 12.80596791 0.0356227 16.85980225 0.0579834 C21.76021195 0.08238338 26.66067321 0.09128238 31.56112671 0.10289001 C38.94450105 0.12205903 46.32754584 0.16046692 53.7109375 0.1953125 C53.7109375 13.0653125 53.7109375 25.9353125 53.7109375 39.1953125 C46.69972656 39.26878906 46.69972656 39.26878906 39.546875 39.34375 C36.5572721 39.37920225 33.56769507 39.41519957 30.578125 39.453125 C25.84965033 39.51305922 21.12121118 39.57114902 16.39257812 39.6171875 C12.57339559 39.65449913 8.75441754 39.70097183 4.93541336 39.75337601 C3.49007437 39.77167981 2.04469198 39.78687269 0.59928513 39.79865646 C-15.37492915 39.93334896 -29.42855689 40.81013873 -42.6640625 50.4453125 C-50.29380145 58.43837235 -53.59779504 67.16490363 -53.55648804 78.04974365 C-53.56101915 78.92986185 -53.56555026 79.80998005 -53.57021868 80.7167685 C-53.58285811 83.6598655 -53.58124259 86.60277734 -53.57958984 89.54589844 C-53.58557542 91.65861244 -53.59238103 93.77132426 -53.59994507 95.8840332 C-53.61761036 101.61971531 -53.62230071 107.35533774 -53.62357664 113.09104443 C-53.62499862 116.67620399 -53.62926913 120.26134841 -53.63457108 123.84650421 C-53.65307385 136.35894229 -53.66124147 148.87133776 -53.65966797 161.38378906 C-53.65846685 173.03878059 -53.6795629 184.69358684 -53.7111553 196.34853148 C-53.73732752 206.36147358 -53.74803485 216.37435521 -53.74675715 226.38733125 C-53.74624775 232.36464847 -53.75191876 238.34180108 -53.77311325 244.31908417 C-53.79251112 249.94325413 -53.79260926 255.56710272 -53.77807999 261.19128418 C-53.77599266 263.251167 -53.78068819 265.31107001 -53.7928009 267.37091827 C-53.86837609 281.1174301 -53.39052422 292.76939269 -43.2890625 303.1953125 C-33.20436988 311.75098017 -23.04702574 314.23754825 -9.97680664 314.40063477 C-9.28328094 314.41053436 -8.58975525 314.42043396 -7.87521362 314.43063354 C-5.60824873 314.46194023 -3.34126296 314.48688242 -1.07421875 314.51171875 C0.50761932 314.532315 2.08945223 314.55331213 3.67127991 314.57469177 C7.81564113 314.62963687 11.96004973 314.67916658 16.10449219 314.72753906 C21.08731466 314.78683561 26.07005138 314.85291051 31.05280304 314.91783905 C38.60546173 315.0155013 46.15817783 315.10459446 53.7109375 315.1953125 C53.7109375 328.0653125 53.7109375 340.9353125 53.7109375 354.1953125 C36.04523526 354.31563893 36.04523526 354.31563893 28.3828125 354.34179688 C23.20042443 354.35957382 18.01819868 354.38035621 12.8359375 354.42163086 C-53.2713431 354.93393045 -53.2713431 354.93393045 -78.2890625 331.1953125 C-93.36065335 315.78611801 -99.45297756 294.56521094 -99.42950439 273.3752594 C-99.43247552 272.52287262 -99.43544664 271.67048585 -99.4385078 270.79226917 C-99.44713385 267.95468297 -99.44869787 265.11713926 -99.45019531 262.27954102 C-99.45482792 260.23700369 -99.45985317 258.19446723 -99.46524048 256.15193176 C-99.47832651 250.61425089 -99.48480238 245.07658212 -99.48925114 239.53888822 C-99.49218887 236.07259984 -99.49629506 232.60631473 -99.50075531 229.140028 C-99.51442217 218.27602516 -99.52409198 207.41202983 -99.5279572 196.54801899 C-99.53243174 184.04275951 -99.54995505 171.53760967 -99.5789578 159.0323835 C-99.60064141 149.3437117 -99.61066509 139.6550706 -99.61199832 129.96637481 C-99.61304185 124.1906553 -99.61885258 118.41503895 -99.63681793 112.63934517 C-99.65341378 107.19820883 -99.65539876 101.75725194 -99.64667892 96.31609917 C-99.64591459 94.33171988 -99.65017039 92.34733048 -99.66013718 90.36297607 C-99.77535319 65.97063898 -96.09580365 41.92076263 -78.63671875 23.3515625 C-56.7299467 3.23086671 -28.4467157 -0.20533944 0 0 Z " fill="#101010" transform="translate(725.2890625,258.8046875)"/>
<path d="M0 0 C14.52 0 29.04 0 44 0 C44 19.8 44 39.6 44 60 C63.47 60 82.94 60 103 60 C103 72.87 103 85.74 103 99 C83.53 99 64.06 99 44 99 C44.06289278 119.72334402 44.13808551 140.44652426 44.23571491 161.16973114 C44.28065334 170.7921794 44.32007253 180.41459081 44.34643555 190.03710938 C44.36943142 198.42548248 44.40284725 206.81373878 44.44870156 215.20201921 C44.47261232 219.64230099 44.49135517 224.08246723 44.49761391 228.52281189 C44.50367447 232.70564547 44.52370934 236.88818354 44.55427551 241.07090759 C44.56304018 242.60268093 44.56678158 244.1344929 44.56500816 245.66629028 C44.24595209 258.52870689 44.24595209 258.52870689 50.3125 269.375 C56.47095257 273.09871551 62.20802355 273.3272198 69.2109375 273.4140625 C70.17907379 273.43342865 71.14721008 273.4527948 72.14468384 273.4727478 C75.2213677 273.5322833 78.29808951 273.5788247 81.375 273.625 C83.46746377 273.66320373 85.55991222 273.70225685 87.65234375 273.7421875 C92.76814713 273.8395541 97.88379734 273.91932958 103 274 C103 286.87 103 299.74 103 313 C95.17468537 313.09242498 87.35130688 313.17188802 79.52587891 313.21972656 C76.87027966 313.2374118 74.21557365 313.26687312 71.56005859 313.30175781 C31.9231319 313.80896726 31.9231319 313.80896726 16.375 300 C1.23573811 283.67966095 -0.16762547 262.52232911 -0.11352539 241.36083984 C-0.11324283 239.80273439 -0.1134026 238.24462881 -0.1139679 236.68652344 C-0.11425318 232.48475843 -0.10840008 228.28302234 -0.10139394 224.08126402 C-0.09511548 219.67971667 -0.09455306 215.27816856 -0.09336853 210.87661743 C-0.09026841 202.5541918 -0.08207289 194.2317794 -0.07201904 185.90935957 C-0.06081682 176.4292615 -0.05533712 166.94916276 -0.05032361 157.46905971 C-0.03988911 137.97936412 -0.02156012 118.48968667 0 99 C-10.56 99 -21.12 99 -32 99 C-32 86.13 -32 73.26 -32 60 C-21.44 60 -10.88 60 0 60 C0 40.2 0 20.4 0 0 Z " fill="#101010" transform="translate(1871,300)"/>
<path d="M0 0 C14.52 0 29.04 0 44 0 C44.00586624 3.79299088 44.01173248 7.58598175 44.01777649 11.49391174 C44.07294482 46.27129787 44.14289707 81.04862907 44.22898628 115.82595286 C44.24025453 120.38339864 44.25139297 124.94084472 44.26245117 129.49829102 C44.26465486 130.40560173 44.26685854 131.31291245 44.269129 132.24771743 C44.30450751 146.94139419 44.32936852 161.63507089 44.35034702 176.32877446 C44.37210466 191.40433781 44.40515474 206.47984585 44.44870156 221.55536216 C44.4752189 230.85878536 44.49291367 240.16213964 44.49934604 249.46559875 C44.50459966 255.84414587 44.5208158 262.22260625 44.54566566 268.60110689 C44.55968154 272.28192571 44.56885116 275.96258926 44.56500816 279.64343643 C44.56096728 283.63485706 44.58000409 287.62583688 44.60127258 291.61720276 C44.59642501 292.77966115 44.59157743 293.94211954 44.58658296 295.13980395 C44.65468167 303.51797161 44.65468167 303.51797161 48 311 C56.34164079 315.04349839 56.34164079 315.04349839 72 315 C72 327.87 72 340.74 72 354 C66.6375 354.061875 61.275 354.12375 55.75 354.1875 C54.08420898 354.21481201 52.41841797 354.24212402 50.70214844 354.27026367 C35.88275111 354.41341742 24.17767915 352.01872308 12.7109375 342 C0.38054052 329.43869671 -0.32430244 311.27430969 -0.24050903 294.62356567 C-0.24221788 293.3538696 -0.24392673 292.08417352 -0.24568737 290.77600181 C-0.25010764 287.29590078 -0.2422317 283.81592551 -0.23213124 280.33584046 C-0.22342119 276.56645388 -0.2264222 272.79707328 -0.22793579 269.02767944 C-0.22897991 262.51158113 -0.2227531 255.99552314 -0.21146011 249.47943497 C-0.19514346 240.05849701 -0.18999083 230.63757838 -0.18748413 221.21662782 C-0.18311666 205.92842445 -0.16983339 190.64024252 -0.15087891 175.35205078 C-0.1324955 160.50895291 -0.11835106 145.66586088 -0.10986328 130.82275391 C-0.10933783 129.9064374 -0.10881239 128.99012089 -0.10827102 128.04603721 C-0.10566077 123.44873218 -0.1031334 118.85142712 -0.10064721 114.25412202 C-0.07994425 76.16939893 -0.04419074 38.08470255 0 0 Z " fill="#111111" transform="translate(829,259)"/>
<path d="M0 0 C14.52 0 29.04 0 44 0 C44 83.49 44 166.98 44 253 C29.48 253 14.96 253 0 253 C0 169.51 0 86.02 0 0 Z " fill="#111111" transform="translate(1752,360)"/>
<path d="M0 0 C4.57498557 3.40464042 8.8610727 7.52071811 10.6875 13 C11.39226376 20.15161912 11.01114876 26.08121869 6.6875 32 C3.88331482 34.66397592 1.13339301 36.32085722 -2.3125 38 C-2.31488835 38.80121686 -2.31727671 39.60243372 -2.31973743 40.42792988 C-2.3788261 59.90676972 -2.45433662 79.38548217 -2.54821491 98.86418629 C-2.59321577 108.2838765 -2.63262045 117.70352854 -2.65893555 127.12329102 C-2.68188097 135.3317971 -2.71524006 143.54018282 -2.76120156 151.74859351 C-2.78518059 156.09649592 -2.8038786 160.44427879 -2.81011391 164.79224586 C-2.81614372 168.8823209 -2.83606665 172.97208985 -2.86677551 177.06205177 C-2.87558966 178.56528603 -2.87927137 180.06856024 -2.87750816 181.57181931 C-2.87586375 183.6202056 -2.89426838 185.66857907 -2.91377258 187.71687317 C-2.91838155 188.86450543 -2.92299051 190.0121377 -2.92773914 191.1945467 C-3.3125 194 -3.3125 194 -4.64992046 195.86535168 C-7.28007728 197.66033529 -9.22664363 197.45002072 -12.3125 197 C-14.63154837 194.72873652 -15.2698651 193.34335022 -15.67212105 190.10387611 C-15.66504065 188.9723329 -15.65796024 187.84078968 -15.65066528 186.67495728 C-15.65019699 185.3739357 -15.6497287 184.07291412 -15.64924622 182.73246765 C-15.63371911 181.29250876 -15.61798018 179.85255215 -15.60205078 178.41259766 C-15.59633248 176.89467324 -15.59206036 175.37674278 -15.58912659 173.85881042 C-15.58052224 170.59081732 -15.56326461 167.3230229 -15.53979874 164.0551033 C-15.50434922 158.88633709 -15.49799657 153.71779272 -15.49752808 148.54891968 C-15.49256685 133.85109148 -15.46335815 119.1536129 -15.37109375 104.45605469 C-15.32037575 96.33787721 -15.30170577 88.22028347 -15.3186816 80.10195768 C-15.32620906 75.8065564 -15.31677659 71.51264225 -15.26742935 67.21748734 C-15.22101064 63.17691334 -15.21616859 59.13842742 -15.24300957 55.0976963 C-15.24535962 53.6166012 -15.23233356 52.13538819 -15.20265007 50.6545887 C-14.78590086 42.62279456 -14.78590086 42.62279456 -18.31716537 35.84666061 C-20.6931816 34.20130731 -20.6931816 34.20130731 -23.18591118 33.04691124 C-26.06708959 31.62851854 -27.08422245 29.91715917 -28.3125 27 C-29.98946006 21.18492986 -30.26513655 15.41244079 -27.75 9.8125 C-21.8260102 -0.76605322 -11.32366163 -3.41846389 0 0 Z M-15.3125 13 C-17.63999345 16.49124017 -17.81549316 17.89222251 -17.3125 22 C-15.1442056 25.20907572 -13.58817907 25.91479011 -9.875 27.0625 C-6.21117375 27.32381918 -6.21117375 27.32381918 -3.375 25 C-0.81795951 21.28066838 -0.58781474 19.42863214 -1.3125 15 C-3.24232417 12.28395117 -4.65450775 11.25307394 -7.75 10.0625 C-11.13129751 9.98002933 -12.64336744 10.9801159 -15.3125 13 Z " fill="#F49E0A" transform="translate(1324.3125,190)"/>
<path d="M0 0 C4.6378552 4.6378552 6.9466993 8.8092325 7.03125 15.45703125 C6.60472806 22.56928466 4.41786875 26.98813861 -0.9375 31.75 C-6.48291401 35.82418173 -11.20008165 36.89831697 -18 36 C-24.04712249 34.16387372 -28.69609112 30.39388154 -32 25 C-32 24.01 -32 23.02 -32 22 C-39.59 22 -47.18 22 -55 22 C-54.97381592 25.33633545 -54.94763184 28.6726709 -54.9206543 32.11010742 C-54.83785161 43.12624007 -54.78259465 54.14238638 -54.74093914 65.15874767 C-54.71483186 71.83884849 -54.6794122 78.51856894 -54.62280273 85.19848633 C-54.56852507 91.64349313 -54.53858793 98.08819333 -54.52561378 104.53341103 C-54.51636644 106.99385722 -54.49830872 109.45428641 -54.47134972 111.91460228 C-54.43511764 115.35774534 -54.43005246 118.79961728 -54.43237305 122.24291992 C-54.41439667 123.26287552 -54.39642029 124.28283112 -54.37789917 125.33369446 C-54.41253996 130.0754476 -54.46320841 132.27984604 -57.36750793 136.17622375 C-60 138 -60 138 -62.6875 137.9375 C-65 137 -65 137 -67 135 C-67.25447559 132.85696507 -67.25447559 132.85696507 -67.26069641 130.14808655 C-67.26778122 129.1231459 -67.27486603 128.09820526 -67.28216553 127.04220581 C-67.27968811 125.9133194 -67.27721069 124.78443298 -67.2746582 123.62133789 C-67.27976913 122.43592911 -67.28488007 121.25052032 -67.29014587 120.02919006 C-67.30168774 116.77296516 -67.30411167 113.5168976 -67.30158257 110.26065755 C-67.30051455 107.54436664 -67.30539192 104.82809935 -67.310188 102.11181349 C-67.3212923 95.70448864 -67.32171551 89.2972224 -67.31567383 82.88989258 C-67.30963297 76.27560203 -67.32194562 69.66152414 -67.3432439 63.04726988 C-67.36084646 57.37248121 -67.36686337 51.69776032 -67.36360615 46.02294534 C-67.36179088 42.6318922 -67.36445341 39.24099072 -67.37832069 35.84996223 C-67.39060555 32.0691586 -67.38394086 28.28885184 -67.37231445 24.50805664 C-67.37995819 23.38119446 -67.38760193 22.25433228 -67.39547729 21.09332275 C-67.38846298 20.06556229 -67.38144867 19.03780182 -67.3742218 17.97889709 C-67.37438954 17.08459016 -67.37455729 16.19028322 -67.37473011 15.26887608 C-66.91999727 12.51560797 -66.24357692 11.62237183 -64 10 C-60.87719727 9.67871094 -60.87719727 9.67871094 -57.06640625 9.734375 C-55.68163789 9.73160383 -54.29687146 9.72766135 -52.91210938 9.72265625 C-50.73466701 9.73101118 -48.55868551 9.75007088 -46.3815918 9.79052734 C-38.29477525 10.35956134 -38.29477525 10.35956134 -31.23291016 7.49145508 C-30.00151066 5.40904315 -30.00151066 5.40904315 -29 2 C-20.73197125 -6.45593849 -9.38866296 -7.19034187 0 0 Z M-20 10 C-21.96138387 12.58546056 -22.01298264 13.78795025 -21.8125 17.0625 C-20.96429365 20.12909218 -20.63183484 21.27569441 -18 23 C-14.40393206 24.09445546 -12.70326243 24.31966474 -9.25 22.75 C-6.78918149 21.02635231 -6.78918149 21.02635231 -5 18 C-5.18040501 14.6324398 -5.36105284 12.00886394 -7.1875 9.125 C-11.96825964 6.15763194 -15.70018412 6.53625943 -20 10 Z " fill="#F49D0A" transform="translate(1399,258)"/>
<path d="M0 0 C4.12178423 3.54665154 7.58405544 6.80714222 8.6875 12.3125 C10.07255737 12.28893433 10.07255737 12.28893433 11.4855957 12.26489258 C14.91289889 12.21375168 18.33979642 12.17614465 21.76733398 12.14770508 C23.25047199 12.13262232 24.73356544 12.11215311 26.21655273 12.08618164 C28.34890745 12.04977384 30.48067235 12.03276927 32.61328125 12.01953125 C34.53781128 11.99596558 34.53781128 11.99596558 36.5012207 11.97192383 C39.6875 12.3125 39.6875 12.3125 41.36241245 13.52302551 C43.11629232 15.89156583 43.06719601 17.35045939 43.07518005 20.28466797 C43.08508469 21.31098328 43.09498932 22.33729858 43.10519409 23.39471436 C43.10069244 24.52000549 43.0961908 25.64529663 43.09155273 26.8046875 C43.09841599 27.99024231 43.10527924 29.17579712 43.11235046 30.39727783 C43.12753025 33.64937668 43.12910861 36.90111696 43.12340808 40.15323639 C43.12032058 42.86710242 43.12640366 45.58091638 43.13244683 48.29477501 C43.14649917 54.69590959 43.14492458 61.09691072 43.13354492 67.49804688 C43.12205896 74.10504387 43.13614536 80.71163518 43.1629414 87.31857872 C43.18507991 92.9891566 43.19174012 98.65960695 43.18586498 104.33022499 C43.18249017 107.71794982 43.18494484 111.10541448 43.20211601 114.49310303 C43.21693152 118.26914999 43.20641761 122.0442945 43.18920898 125.8203125 C43.19887695 126.94560364 43.20854492 128.07089478 43.21850586 129.23028564 C43.20375465 130.76975861 43.20375465 130.76975861 43.18870544 132.34033203 C43.18839152 133.67984421 43.18839152 133.67984421 43.18807125 135.04641724 C42.6875 137.3125 42.6875 137.3125 40.81633091 139.1232605 C38.6875 140.3125 38.6875 140.3125 36.125 140.3125 C32.70575967 138.90973474 32.18596894 137.71028229 30.6875 134.3125 C30.25843424 130.75627194 30.30873708 127.22521927 30.34692383 123.6472168 C30.34648575 122.5735939 30.34604767 121.49997101 30.34559631 120.39381409 C30.34768422 116.84959652 30.37101608 113.30585356 30.39453125 109.76171875 C30.40012718 107.30264037 30.40439729 104.84355863 30.40739441 102.38447571 C30.41884334 95.9153417 30.44831126 89.44641006 30.48150635 82.97735596 C30.51220599 76.37490578 30.52589954 69.77242287 30.54101562 63.16992188 C30.57318068 50.21734474 30.62594933 37.26497087 30.6875 24.3125 C23.0975 24.3125 15.5075 24.3125 7.6875 24.3125 C7.3575 25.6325 7.0275 26.9525 6.6875 28.3125 C2.70017732 33.89475175 -0.88330316 36.48695261 -7.6875 38.125 C-14.53699811 38.47928438 -20.01277341 36.78782468 -25.3125 32.3125 C-29.44131489 27.90044187 -30.68673582 23.82387463 -30.9375 17.8125 C-30.63158312 10.26946368 -28.15483977 6.15483977 -22.9375 0.9375 C-15.661573 -3.56664529 -7.58327019 -3.86317538 0 0 Z M-17.3125 12.3125 C-19.05943992 14.69469081 -19.33526273 15.85724533 -19.1875 18.8125 C-18.1015162 21.91531085 -16.90229448 23.29821541 -14.3125 25.3125 C-11.91139783 26.39274658 -11.91139783 26.39274658 -9.3125 26.3125 C-5.82615399 24.69094371 -4.46947806 23.54796708 -2.3125 20.3125 C-2.39010997 16.04395143 -2.6505641 14.01021622 -5.625 10.875 C-10.3056078 8.15371639 -13.21366796 9.29230797 -17.3125 12.3125 Z " fill="#F49D0B" transform="translate(1255.3125,238.6875)"/>
<path d="M0 0 C3.30529357 2.5566587 5.76185856 5.79809624 7.828125 9.4140625 C7.828125 10.0740625 7.828125 10.7340625 7.828125 11.4140625 C9.10659302 11.39049683 9.10659302 11.39049683 10.41088867 11.36645508 C13.58843726 11.31517288 16.76577413 11.27763768 19.94360352 11.24926758 C21.31607017 11.23422818 22.68848914 11.21379117 24.06079102 11.18774414 C26.03901156 11.15115029 28.01759014 11.13589552 29.99609375 11.12109375 C31.18485107 11.1053833 32.3736084 11.08967285 33.59838867 11.07348633 C37.16186002 11.44925491 39.0187076 12.21811112 41.828125 14.4140625 C43.12233035 18.29667855 42.98382198 21.9816813 42.98925781 26.02880859 C42.99670517 27.3487809 42.99670517 27.3487809 43.00430298 28.69541931 C43.01892016 31.60945413 43.02572559 34.52343453 43.03125 37.4375 C43.03700147 39.46147666 43.0427592 41.48545331 43.04852295 43.50942993 C43.05903143 47.7546616 43.06487522 51.99987434 43.06835938 56.24511719 C43.07384618 61.684875 43.0978789 67.12438277 43.12633133 72.56406212 C43.14495367 76.7453586 43.15016308 80.92659478 43.15169525 85.10792923 C43.15472282 87.11339308 43.16275484 89.11885584 43.17588043 91.12427902 C43.19293363 93.92988886 43.19106252 96.73488672 43.18457031 99.54052734 C43.1937851 100.36875504 43.20299988 101.19698273 43.2124939 102.05030823 C43.17918999 106.64434961 42.84260876 109.70084202 39.828125 113.4140625 C37.390625 114.4140625 37.390625 114.4140625 34.828125 114.4140625 C32.6963501 113.44023132 32.6963501 113.44023132 30.828125 111.4140625 C30.44709163 108.48189203 30.32211074 105.92679294 30.37402344 102.99536133 C30.37343933 102.13660904 30.37285522 101.27785675 30.37225342 100.39308167 C30.3750422 97.55200912 30.40617133 94.7119832 30.4375 91.87109375 C30.44495957 89.90240553 30.45065384 87.93370989 30.45465088 85.9650116 C30.46992953 80.78133676 30.50923067 75.59810965 30.5534668 70.41461182 C30.59437135 65.12607887 30.6126516 59.83747364 30.6328125 54.54882812 C30.6757228 44.17034447 30.74609099 33.79231075 30.828125 23.4140625 C23.238125 23.4140625 15.648125 23.4140625 7.828125 23.4140625 C7.168125 25.0640625 6.508125 26.7140625 5.828125 28.4140625 C2.39633683 33.31661703 -0.26439646 35.67087211 -6.171875 37.4140625 C-12.98471522 38.31576194 -18.55082101 37.49527319 -24.171875 33.4140625 C-27.94002986 29.82808307 -30.83585527 25.88999733 -31.54296875 20.6796875 C-31.70019996 13.5395406 -30.96284242 8.84820089 -26.171875 3.4140625 C-18.82064869 -3.56960249 -8.95851159 -5.06192322 0 0 Z M-19.171875 14.4140625 C-19.80195193 18.40454971 -19.80209387 20.43092107 -17.609375 23.8515625 C-14.18873357 26.04428137 -12.16236221 26.04413943 -8.171875 25.4140625 C-4.79065509 22.96807363 -3.40250717 21.52109691 -2.546875 17.4140625 C-3.39569492 13.3397269 -4.84913096 11.87000375 -8.171875 9.4140625 C-13.58214754 8.28692239 -16.01041916 10.04381472 -19.171875 14.4140625 Z " fill="#F59D0A" transform="translate(1233.171875,281.5859375)"/>
<path d="M0 0 C16.17 0 32.34 0 49 0 C49 15.51 49 31.02 49 47 C32.83 47 16.66 47 0 47 C0 31.49 0 15.98 0 0 Z " fill="#101010" transform="translate(1749,259)"/>
</svg>
