<svg width="220" height="180" viewBox="0 0 220 180" xmlns="http://www.w3.org/2000/svg">

  <path d="M70 55
           C50 55 40 70 40 85
           C40 100 50 115 70 115
           H90
           C110 115 120 100 120 85
           C120 70 110 55 90 55 Z"
        fill="black"/>

  <path d="M130 55
           C110 55 100 70 100 85
           C100 100 110 115 130 115
           H150
           C170 115 180 100 180 85
           C180 70 170 55 150 55 Z"
        fill="black"/>

  <path d="M85 85
           Q110 65 135 85
           Q110 105 85 85 Z"
        fill="white"/>

</svg>