<svg display="block" role="presentation" viewBox="0 0 50 50" xmlns="http://www.w3.org/2000/svg"><g d="M 25 50 C 11.193 50 0 38.807 0 25 L 0 25 C 0 11.193 11.193 0 25 0 L 25 0 C 38.807 0 50 11.193 50 25 L 50 25 C 50 38.807 38.807 50 25 50 Z M 11 11 L 39 11 L 39 39 L 11 39 Z M 39 25 C 39 32.73 32.714 39 25 39 C 17.27 39 11 32.73 11 25 C 11 17.27 17.27 11 25 11 C 32.714 11 39 17.27 39 25 Z M 27.582 22.16 C 27.86 22.73 28.123 23.308 28.37 23.892 C 28.462 24.104 28.537 24.316 28.63 24.515 C 32.608 24.013 36.556 24.818 36.95 24.893 C 36.924 22.177 35.97 19.552 34.247 17.453 C 33.989 17.788 31.985 20.368 27.582 22.16 Z M 25 13.064 C 24.054 13.061 23.112 13.169 22.191 13.384 C 23.828 15.619 25.32 17.957 26.656 20.384 C 30.906 18.79 32.714 16.375 32.926 16.071 C 30.741 14.133 27.921 13.064 25 13.066 Z M 13.292 22.556 C 13.823 22.556 18.758 22.586 24.347 21.098 C 22.358 17.575 20.232 14.614 19.913 14.188 C 16.573 15.768 14.067 18.85 13.292 22.556 Z M 16.102 33.002 C 16.375 32.546 19.655 27.111 25.82 25.121 C 25.972 25.075 26.139 25.03 26.29 24.985 C 25.987 24.301 25.669 23.619 25.32 22.951 C 19.351 24.742 13.552 24.666 13.035 24.651 L 13.035 25.015 C 13.035 27.965 14.127 30.81 16.102 33.002 Z M 29.677 36.009 C 29.494 34.961 28.811 31.301 27.126 26.944 C 27.096 26.959 27.08 26.959 27.05 26.974 C 20.308 29.327 17.879 34.005 17.666 34.445 C 19.686 36.024 22.236 36.965 25 36.965 C 26.608 36.97 28.2 36.644 29.677 36.009 Z M 31.666 34.916 C 34.353 33.108 36.266 30.238 36.783 26.913 C 36.372 26.777 33.093 25.805 29.342 26.397 C 30.906 30.695 31.545 34.186 31.666 34.915 Z" fill="transparent" height="50px" id="nbngawVcD" width="50px"><path d="M 25 50 C 11.193 50 0 38.807 0 25 L 0 25 C 0 11.193 11.193 0 25 0 L 25 0 C 38.807 0 50 11.193 50 25 L 50 25 C 50 38.807 38.807 50 25 50 Z" fill="rgb(224, 74, 132)" height="50px" id="Z6T9sv6KQ" width="50px"/><g d="M 0 0 L 28 0 L 28 28 L 0 28 Z M 28 14 C 28 21.73 21.714 28 14 28 C 6.27 28 0 21.73 0 14 C 0 6.27 6.27 0 14 0 C 21.714 0 28 6.27 28 14 Z M 16.582 11.16 C 16.86 11.73 17.123 12.308 17.37 12.892 C 17.462 13.104 17.537 13.316 17.63 13.515 C 21.608 13.013 25.556 13.818 25.95 13.893 C 25.924 11.177 24.97 8.552 23.247 6.453 C 22.989 6.788 20.985 9.368 16.582 11.16 Z M 14 2.064 C 13.054 2.061 12.112 2.169 11.191 2.384 C 12.828 4.619 14.32 6.957 15.656 9.384 C 19.906 7.79 21.714 5.375 21.926 5.071 C 19.741 3.133 16.921 2.064 14 2.066 Z M 2.292 11.556 C 2.823 11.556 7.758 11.586 13.347 10.098 C 11.358 6.575 9.232 3.614 8.913 3.188 C 5.573 4.768 3.067 7.85 2.292 11.556 Z M 5.102 22.002 C 5.375 21.546 8.655 16.111 14.82 14.121 C 14.972 14.075 15.139 14.03 15.29 13.985 C 14.987 13.301 14.669 12.619 14.32 11.951 C 8.351 13.742 2.552 13.666 2.035 13.651 L 2.035 14.015 C 2.035 16.965 3.127 19.81 5.102 22.002 Z M 18.677 25.009 C 18.494 23.961 17.811 20.301 16.126 15.944 C 16.096 15.959 16.08 15.959 16.05 15.974 C 9.308 18.327 6.879 23.005 6.666 23.445 C 8.686 25.024 11.236 25.965 14 25.965 C 15.608 25.97 17.2 25.644 18.677 25.009 Z M 20.666 23.916 C 23.353 22.108 25.266 19.238 25.783 15.913 C 25.372 15.777 22.093 14.805 18.342 15.397 C 19.906 19.695 20.545 23.186 20.666 23.915 Z" fill="transparent" height="28px" id="feEQHlkAF" transform="translate(11 11)" width="28px"><path d="M 0 0 L 28 0 L 28 28 L 0 28 Z" fill="transparent" height="28px" id="w7q7yNd1G" width="28px"/><g d="M 28 14 C 28 21.73 21.714 28 14 28 C 6.27 28 0 21.73 0 14 C 0 6.27 6.27 0 14 0 C 21.714 0 28 6.27 28 14 Z M 16.582 11.16 C 16.86 11.73 17.123 12.308 17.37 12.892 C 17.462 13.104 17.537 13.316 17.63 13.515 C 21.608 13.013 25.556 13.818 25.95 13.893 C 25.924 11.177 24.97 8.552 23.247 6.453 C 22.989 6.788 20.985 9.368 16.582 11.16 Z M 14 2.064 C 13.054 2.061 12.112 2.169 11.191 2.384 C 12.828 4.619 14.32 6.957 15.656 9.384 C 19.906 7.79 21.714 5.375 21.926 5.071 C 19.741 3.133 16.921 2.064 14 2.066 Z M 2.292 11.556 C 2.823 11.556 7.758 11.586 13.347 10.098 C 11.358 6.575 9.232 3.614 8.913 3.188 C 5.573 4.768 3.067 7.85 2.292 11.556 Z M 5.102 22.002 C 5.375 21.546 8.655 16.111 14.82 14.121 C 14.972 14.075 15.139 14.03 15.29 13.985 C 14.987 13.301 14.669 12.619 14.32 11.951 C 8.351 13.742 2.552 13.666 2.035 13.651 L 2.035 14.015 C 2.035 16.965 3.127 19.81 5.102 22.002 Z M 18.677 25.009 C 18.494 23.961 17.811 20.301 16.126 15.944 C 16.096 15.959 16.08 15.959 16.05 15.974 C 9.308 18.327 6.879 23.005 6.666 23.445 C 8.686 25.024 11.236 25.965 14 25.965 C 15.608 25.97 17.2 25.644 18.677 25.009 Z M 20.666 23.916 C 23.353 22.108 25.266 19.238 25.783 15.913 C 25.372 15.777 22.093 14.805 18.342 15.397 C 19.906 19.695 20.545 23.186 20.666 23.915 Z" fill="transparent" height="28px" id="P2fPlPwAf" width="28px"><path d="M 28 14 C 28 21.73 21.714 28 14 28 C 6.27 28 0 21.73 0 14 C 0 6.27 6.27 0 14 0 C 21.714 0 28 6.27 28 14 Z M 16.582 11.16 C 16.86 11.73 17.123 12.308 17.37 12.892 C 17.462 13.104 17.537 13.316 17.63 13.515 C 21.608 13.013 25.556 13.818 25.95 13.893 C 25.924 11.177 24.97 8.552 23.247 6.453 C 22.989 6.788 20.985 9.368 16.582 11.16 Z M 14 2.064 C 13.054 2.061 12.112 2.169 11.191 2.384 C 12.828 4.619 14.32 6.957 15.656 9.384 C 19.906 7.79 21.714 5.375 21.926 5.071 C 19.741 3.133 16.921 2.064 14 2.066 Z M 2.292 11.556 C 2.823 11.556 7.758 11.586 13.347 10.098 C 11.358 6.575 9.232 3.614 8.913 3.188 C 5.573 4.768 3.067 7.85 2.292 11.556 Z M 5.102 22.002 C 5.375 21.546 8.655 16.111 14.82 14.121 C 14.972 14.075 15.139 14.03 15.29 13.985 C 14.987 13.301 14.669 12.619 14.32 11.951 C 8.351 13.742 2.552 13.666 2.035 13.651 L 2.035 14.015 C 2.035 16.965 3.127 19.81 5.102 22.002 Z M 18.677 25.009 C 18.494 23.961 17.811 20.301 16.126 15.944 C 16.096 15.959 16.08 15.959 16.05 15.974 C 9.308 18.327 6.879 23.005 6.666 23.445 C 8.686 25.024 11.236 25.965 14 25.965 C 15.608 25.97 17.2 25.644 18.677 25.009 Z M 20.666 23.916 C 23.353 22.108 25.266 19.238 25.783 15.913 C 25.372 15.777 22.093 14.805 18.342 15.397 C 19.906 19.695 20.545 23.186 20.666 23.915 Z" fill="rgb(255, 255, 255)" height="28px" id="mTQtfQvEj" width="28px"/></g></g></g></svg>